HIERARCHY
ROOT hip
{
	OFFSET 0.000000 0.000000 0.000000 
	CHANNELS 6 Xposition Yposition Zposition Xrotation Zrotation Yrotation
	JOINT abdomen
	{
		OFFSET 0.000000 3.402643 0.000000 
		CHANNELS 3 Xrotation Zrotation Yrotation
		JOINT chest
		{
			OFFSET 0.000000 8.438565 -0.680529 
			CHANNELS 3 Xrotation Zrotation Yrotation
			JOINT neck
			{
				OFFSET 0.000000 10.207942 -0.272212 
				CHANNELS 3 Xrotation Zrotation Yrotation
				JOINT head
				{
					OFFSET 0.000000 3.130431 0.000000 
					CHANNELS 3 Xrotation Zrotation Yrotation
					End Site
					{
						OFFSET 0.000000 3.130435 0.000000 
					}
				}
			}
			JOINT lCollar
			{
				OFFSET 3.470700 6.669187 -0.816635 
				CHANNELS 3 Yrotation Zrotation Xrotation
				JOINT lShldr
				{
					OFFSET 3.198488 0.000000 0.000000 
					CHANNELS 3 Zrotation Yrotation Xrotation
					JOINT lForeArm
					{
						OFFSET 10.139888 0.000000 0.000000 
						CHANNELS 3 Yrotation Zrotation Xrotation
						JOINT lHand
						{
							OFFSET 8.370511 0.000000 0.000000 
							CHANNELS 3 Zrotation Yrotation Xrotation
							End Site
							{
								OFFSET 4.083176 0.000000 0.000000 
							}
						}
					}
				}
			}
			JOINT rCollar
			{
				OFFSET -3.470700 6.669187 -0.816635 
				CHANNELS 3 Yrotation Zrotation Xrotation
				JOINT rShldr
				{
					OFFSET -3.198488 0.000000 0.000000 
					CHANNELS 3 Zrotation Yrotation Xrotation
					JOINT rForeArm
					{
						OFFSET -10.139888 0.000000 0.000000 
						CHANNELS 3 Yrotation Zrotation Xrotation
						JOINT rHand
						{
							OFFSET -8.370511 0.000000 0.000000 
							CHANNELS 3 Zrotation Yrotation Xrotation
							End Site
							{
								OFFSET -4.083176 0.000000 0.000000 
							}
						}
					}
				}
			}
		}
	}
	JOINT lThigh
	{
		OFFSET 5.308129 -1.633274 1.361059 
		CHANNELS 3 Xrotation Zrotation Yrotation
		JOINT lShin
		{
			OFFSET -2.041588 -20.007561 0.000000 
			CHANNELS 3 Xrotation Zrotation Yrotation
			JOINT lFoot
			{
				OFFSET 0.000000 -19.190928 -1.224953 
				CHANNELS 3 Xrotation Yrotation Zrotation
				End Site
				{
					OFFSET 0.000000 -2.449906 4.627600 
				}
			}
		}
	}
	JOINT rThigh
	{
		OFFSET -5.308129 -1.633274 1.361059 
		CHANNELS 3 Xrotation Zrotation Yrotation
		JOINT rShin
		{
			OFFSET 2.041588 -20.007561 0.000000 
			CHANNELS 3 Xrotation Zrotation Yrotation
			JOINT rFoot
			{
				OFFSET 0.000000 -19.190928 -1.224953 
				CHANNELS 3 Xrotation Yrotation Zrotation
				End Site
				{
					OFFSET 0.000000 -2.449906 4.627600 
				}
			}
		}
	}
}
MOTION
Frames: 13
Frame Time: 0.050000
0.689280 21.841391 -1.719680 66.014099 -3.062060 5.991330 46.531898 -0.301007 1.785020 11.093400 3.996590 -0.732532 -5.413760 -0.712191 0.414291 12.715800 -0.201916 -2.993920 33.837399 3.288640 -0.963594 69.105202 -66.009743 -177.626419 21.133549 -68.116104 12.054272 -24.058189 -115.546394 136.451401 -3.767150 -3.390930 0.028619 1.712228 58.930851 -15.179258 91.183548 9.241736 8.269858 44.080704 181.483688 -139.801132 -111.258224 26.201122 -8.705125 120.513481 -1.868680 -2.108365 -65.087585 18.633314 -5.822557 -62.464996 -15.692616 1.904070 96.970726 2.565733 -48.827984 -3.361267 -18.417370 10.343888 
1.008667 22.395943 -2.964107 64.164261 -2.963451 2.754019 47.166748 -0.855857 0.523571 12.689378 2.482495 -2.452213 -2.376869 -0.684793 0.851642 17.342936 -0.193910 -2.187960 34.517544 3.522521 -0.810354 67.327377 -52.246067 -170.117310 38.204861 -65.953972 14.612580 -21.896420 -122.091805 132.305679 1.033598 -2.839470 0.001552 -3.392233 59.306702 -21.591974 90.395386 7.291329 6.770833 49.205528 182.054321 -140.434326 -113.015114 23.730499 -13.001204 121.436882 -2.019585 -1.946713 -63.059250 23.547337 -4.420266 -74.972069 -15.591240 4.298295 108.562630 1.907528 -48.601204 -12.682824 -5.775587 16.242815 
1.284536 22.931547 -4.215784 62.679600 -2.905290 0.635854 45.461800 -1.274370 -0.241939 14.457100 0.975934 -4.204980 -0.266922 -0.669304 0.993088 21.403019 -0.189440 -1.508007 35.031254 3.832688 -0.699897 81.472656 -36.534283 -164.638046 44.884636 -55.001804 13.112350 -42.566666 -139.441635 145.000122 7.068698 -2.514664 -0.013802 -4.322110 57.672199 -24.319283 88.305321 5.542800 7.988133 -125.980545 -5.025332 39.729309 -114.355675 22.275084 -14.958039 122.023544 -2.084520 -1.924749 -61.416904 26.040903 -2.815727 -89.278053 -16.825222 7.229537 118.502823 1.022884 -48.299019 -24.091948 12.665602 25.398283 
1.331716 24.030231 -5.094845 61.498585 -2.859475 -1.116023 44.721790 -1.388991 -0.561384 15.801632 -0.092269 -5.171740 0.841039 -0.660244 0.926578 24.196253 -0.186904 -0.956318 34.633183 4.222821 -0.616234 88.084610 -34.374920 -169.215424 42.045414 -40.628654 10.338517 -54.202454 -142.276459 150.065002 14.060518 -2.330781 -0.020637 -6.075172 55.076450 -28.688171 85.088524 4.482844 11.865650 -121.070213 -9.317275 40.725574 -114.498039 22.939547 -15.178984 120.250687 -2.352073 -1.848109 -59.103580 26.097033 -1.414357 -105.070770 -16.882408 10.038542 123.713112 0.473263 -48.457405 -35.221786 31.582106 36.691082 
1.226472 25.368813 -5.406033 60.217300 -2.822450 -2.744970 43.983101 -1.095660 -0.534832 14.535300 -0.355459 -5.737570 0.871971 -0.652130 0.740061 25.022842 -0.184699 -0.535150 32.577995 4.696603 -0.543378 -86.822800 -136.353775 2.531544 31.553221 -24.792776 6.938003 -64.035049 -138.692566 154.359161 21.731430 -2.202090 -0.022146 -2.639205 54.604179 -25.252922 76.625511 1.991914 7.785911 -116.053520 -5.629828 34.305870 -112.968506 24.960236 -14.498764 117.474419 -2.713556 -1.710349 -57.351017 25.015120 -0.355770 -119.179695 -15.390907 10.956764 123.247513 0.715521 -48.609238 -48.093945 42.195946 49.618927 
1.145601 26.578726 -5.291406 58.512577 -2.781923 -4.366241 41.557266 -0.326029 -0.293570 9.075308 0.240021 -6.315227 -0.249166 -0.639480 0.521488 23.182995 -0.181223 -0.246759 28.120356 5.257711 -0.465339 -63.227478 -110.443115 -14.311084 0.825180 -2.078166 3.332406 84.776382 -39.427799 -3.475378 29.803791 -2.042860 -0.021524 12.324294 57.688789 -5.238807 56.992420 -4.888159 -5.223989 -112.534836 3.487738 19.579885 -110.002701 26.991312 -13.737000 115.280495 -3.031250 -1.633842 -56.840199 24.373932 0.382050 -128.467590 -13.558811 8.663806 116.477470 1.874422 -49.650475 -59.741043 40.861202 56.658337 
1.406618 28.015171 -6.057726 56.726601 -2.666130 -6.092200 37.124699 0.908910 -0.043559 1.851030 0.560009 -6.224020 -2.597420 -0.616812 0.358808 17.976900 -0.174875 -0.093402 20.514900 5.909830 -0.366129 -55.638718 -95.878204 -16.957481 0.710586 -1.448733 4.362718 66.385674 -31.284115 6.699372 38.000000 -1.767360 -0.021964 24.972879 73.607864 14.117223 1.592287 1.397862 4.312114 -110.727898 -25.357325 -0.065431 -108.043060 27.479925 -13.130448 112.435219 -3.411199 -1.441537 -54.809235 24.803816 2.078962 -131.150879 -11.455338 4.778648 103.276733 3.311465 -50.668148 -59.474678 41.059666 51.978024 
2.192224 30.032549 -8.611889 55.167671 -2.425995 -7.930662 31.287136 2.502122 0.053965 -4.264685 -0.373153 -4.829615 -6.368370 -0.582104 0.310642 8.864763 -0.165049 -0.062590 9.904846 6.608708 -0.237390 -36.982292 -80.553909 -22.593546 0.168334 -0.707508 4.894479 66.070313 -16.472399 8.227417 44.960720 -1.337263 -0.025483 -16.687742 64.167412 -20.251606 -4.640101 33.893852 45.871029 -97.162392 -73.635735 -10.034898 -109.271400 25.161705 -12.898203 107.813042 -3.951344 -1.093795 -48.942646 26.836569 6.140641 -127.384789 -8.591754 1.373640 84.886673 4.476855 -52.499142 -39.823631 53.000332 34.940041 
3.005139 32.258339 -11.096645 53.343102 -2.162660 -9.474230 26.962601 4.041800 0.091339 -8.637580 -1.723260 -2.776540 -12.239800 -0.547173 0.318298 -4.053340 -0.155131 -0.082857 -0.012541 7.118390 -0.101282 -35.003883 -68.126038 -18.686237 -0.362214 0.162007 5.129464 55.957088 -7.626744 2.993616 45.000000 -0.903854 -0.029390 16.693363 58.857803 8.896873 1.575706 1.388193 -2.479982 -50.520729 -18.698366 -17.902554 -108.527336 22.899675 -12.290240 102.180260 -4.444650 -0.908415 -43.590229 29.407980 9.897679 -119.594620 -5.897996 -1.090839 65.728439 5.090404 -54.676018 -5.071591 61.106750 4.290947 
3.313724 34.362347 -11.582637 50.813831 -1.982381 -10.349428 26.307699 5.154246 0.178881 -11.208611 -2.538945 -0.886204 -19.991495 -0.522336 0.311347 -19.264751 -0.148086 -0.085945 -5.706009 7.227067 0.015599 -44.941093 -58.562786 -0.310901 -0.915038 1.024484 3.781182 53.166992 -1.053270 -23.475391 34.218769 -0.607253 -0.030606 32.097191 47.593494 14.346312 38.488247 -11.206902 -16.338339 -35.209293 -12.397925 -6.267478 -103.387489 21.630955 -11.651437 96.886673 -4.686836 -1.115221 -41.185642 32.378105 11.491545 -112.021530 -4.972559 -2.542182 57.355167 4.600965 -53.197098 1.706612 61.245823 -1.510381 
3.128868 36.910591 -10.616192 48.156399 -1.861660 -10.733700 26.117001 5.922970 0.245250 -11.981100 -3.222020 0.591294 -25.328899 -0.498062 0.289729 -30.246099 -0.141208 -0.075420 -7.862440 7.011240 0.099439 -53.762505 -50.240955 21.357620 -1.446386 2.047589 0.987564 50.435566 4.570910 -53.002384 20.192400 -0.353309 -0.029209 44.852016 52.225441 19.073612 48.455341 -7.355268 -7.740244 -20.913012 -14.770791 -23.304768 -94.406975 21.249380 -10.836326 89.540894 -5.019344 -0.674617 -39.282837 34.819111 11.107642 -103.713104 -3.446771 -3.471005 51.425377 3.858457 -51.737457 1.967891 60.537552 -2.021811 
2.655389 40.319431 -9.167458 45.934910 -1.756913 -10.899716 23.022324 6.499586 0.206845 -11.079531 -4.310114 1.538669 -24.536196 -0.463861 0.267818 -31.555939 -0.131513 -0.068399 -8.097569 6.591434 0.144405 -75.627083 -22.730295 44.552467 -19.057583 49.364552 4.145819 26.630104 11.525292 -54.762844 10.957151 -0.018899 -0.026200 52.219429 32.955677 29.229218 69.116943 -6.398867 -6.831717 -18.799381 -15.395796 -22.533873 -83.408363 20.822039 -9.877329 78.441406 -5.757566 1.119994 -35.621193 36.532066 10.080922 -92.509720 -1.947310 -4.422729 40.851223 3.679748 -50.849266 5.065866 59.114262 -5.376199 
2.331268 43.510242 -7.426126 43.648300 -1.673960 -10.950100 18.366600 6.850870 0.112663 -9.050600 -5.530910 1.798500 -20.286501 -0.425237 0.247366 -27.090599 -0.120561 -0.064392 -7.524180 5.975950 0.163792 -79.594971 -2.183440 53.485577 -40.953434 70.801041 18.607800 15.459023 15.645864 -57.908672 4.919010 0.400688 -0.023106 53.214855 12.014452 34.857265 79.988609 -6.157486 -12.933515 -13.385257 -7.005904 -15.320222 -72.053307 20.135212 -8.646970 67.146439 -6.363775 2.899346 -32.606125 38.098198 9.868034 -81.273682 -1.034632 -4.984458 30.390049 3.762689 -49.973232 7.850790 57.599285 -8.159005 
